<svg width="482" height="142" viewBox="0 0 482 142" fill="none" xmlns="http://www.w3.org/2000/svg">
<path opacity="0.1" d="M450.883 76.5077C446.102 75.6486 442.687 74.7895 439.955 73.9304C383.263 62.7622 327.253 63.6213 269.195 60.1849C263.048 60.1849 257.583 59.3258 251.436 59.3258C236.409 58.4667 221.382 57.6076 206.356 57.6076C217.284 55.8894 227.53 54.1712 238.458 52.453C251.436 49.8758 264.414 47.2985 276.708 43.8621C286.271 41.2848 297.883 37.8485 306.079 32.6939C326.57 18.9484 238.458 6.0619 231.628 6.0619C156.494 -0.810862 80.6763 -1.6699 5.54204 2.62557C-49.1011 6.06195 -111.258 8.63919 -163.852 23.2438C-189.807 30.1166 -195.954 43.8621 -176.829 59.3258C-158.387 73.9305 -131.749 78.2259 -106.476 81.6623C-93.4986 83.3805 -79.8378 85.0987 -66.1771 85.9578C-68.9092 86.8169 -70.9583 88.535 -70.9583 91.1123C-70.9583 93.6896 -66.8601 95.4078 -64.811 96.2669C-60.7128 97.9851 -55.2484 98.8442 -49.7841 99.7033C-18.3643 105.717 13.0555 107.435 45.1583 107.435C42.4261 109.153 40.377 110.012 37.6448 111.731C32.8636 115.167 28.7654 119.462 28.7654 124.617C28.0823 127.194 29.4484 128.913 30.8145 129.772C35.5957 135.785 45.1583 137.503 53.3548 139.222C66.3325 141.799 80.6763 141.799 94.3371 141.799C166.056 142.658 237.775 140.94 308.128 133.208C336.133 129.772 364.138 126.335 391.459 122.04C411.267 118.603 431.075 113.449 450.883 109.153C465.227 105.717 489.817 98.8442 479.571 87.6759C474.79 82.5214 461.129 79.085 450.883 76.5077Z" fill="white"/>
</svg>
